<?xml version="1.0" encoding="UTF-8"?><svg id="Layer_2" xmlns="http://www.w3.org/2000/svg" viewBox="0 0 250.59 237.24"><g id="Layer_3"><path d="m250.35,135.21l-5.47-36.18c-3.96-26.17-26.87-44.94-53.31-43.67l-49.83,2.41L93.78,7.28c-7.35-7.74-19-9.52-28.32-4.34L28.03,23.75C13.45,31.85,3.51,45.92.76,62.37c-2.75,16.45,2.06,32.99,13.2,45.4l30.49,33.93-5.33,70.07c-.35,4.59,2.3,8.88,6.56,10.62l25.64,10.48c7.2,2.95,14.75,4.37,22.23,4.37,16.5,0,32.67-6.94,44.06-19.79l25.71-28.99,74.01-30.31c9.14-3.75,14.49-13.18,13.02-22.95ZM21.67,65.87c1.68-10.04,7.75-18.64,16.65-23.59l37.43-20.8c.33-.18.7-.27,1.06-.27.58,0,1.16.23,1.58.68l46.64,49.11-7.92,29.59-58.91,24.7-28.48-31.71c-6.81-7.57-9.74-17.68-8.06-27.72Zm100.07,137.51c-10.59,11.93-27.63,15.9-42.4,9.86l-18.49-7.56,4.59-60.42,55.87-23.43,23.36,55.69-22.93,25.86Zm41.01-37.6l-24.16-57.62,7.86-29.38,46.15-2.23c15.49-.78,28.99,10.27,31.32,25.65l5.38,36.33-66.54,27.25Z" style="fill:#003765;"/><path d="m71.27,47.26c15.03,0,27.17,12.71,27.17,27.74s-12.14,27.16-27.17,27.16-27.74-12.14-27.74-27.16,12.14-27.74,27.74-27.74Z" style="fill:#0068c7;"/><path d="m178.45,94.52c15.9-4.44,30.05,9.38,27.72,24.93-1.63,10.9-11.59,18.95-22.61,18.53-12.91-.5-22.63-11.34-21.34-24.18.91-9.05,7.47-16.82,16.23-19.27Z" style="fill:#0068c7;"/><path d="m100.47,150.14c11.68,0,21.12,9.88,21.12,21.57s-9.44,21.11-21.12,21.11-21.57-9.43-21.57-21.11,9.44-21.57,21.57-21.57Z" style="fill:#0068c7;"/></g></svg>
